<svg viewBox="0 0 800 800" xmlns="http://www.w3.org/2000/svg"><path d="M37.3 416v104.5c0 18.1 13.9 32 32 32H113c12.8 37.3 49.1 64 90.7 64 39.5 0 73.6-23.5 88.5-57.6h218.7c14.9 34.1 49.1 57.6 88.5 57.6 41.6 0 76.8-26.7 90.7-64h43.7c18.1 0 32-13.9 32-32V416c0-24.5-9.6-46.9-26.7-64l-71.5-71.5-60.8-60.8c-21.3-21.3-50.1-33.1-80-33.1H336c-43.7 0-84.3 25.6-102.4 66.1l-34.1 73.6H128c-50.1-1-90.7 39.6-90.7 89.7zm165.4 135.5c-17.1 0-32-13.9-32-32 0-17.1 13.9-32 32-32 17.1 0 32 13.9 32 32s-13.9 32-32 32zm394.6 0c-17.1 0-32-13.9-32-32 0-17.1 13.9-32 32-32 17.1 0 32 13.9 32 32s-14.9 32-32 32zM449.1 250.7h74.7c12.8 0 25.6 5.3 35.2 14.9l60.8 60.8H449.1v-75.7zm-157.9 28.8c8.5-17.1 25.6-28.8 44.8-28.8h49.1v75.7H269.9l21.3-46.9zm-71.5 109.8c1.1 0 1.1 0 0 0H672c7.5 0 13.9 3.2 18.1 7.5 5.3 5.3 7.5 11.7 7.5 18.1v72.5h-11.7c-12.8-37.3-49.1-64-90.7-64-43.7 0-81.1 29.9-91.7 69.3h-208c-11.7-40.5-48-69.3-91.7-69.3-41.6 0-76.8 26.7-90.7 64h-11.7V416c0-13.9 11.7-25.6 25.6-25.6h92.8v-1.1z" fill="#ff5816"/></svg>
