<svg xmlns="http://www.w3.org/2000/svg" width="25" height="25" viewBox="0 0 25 25"><path data-name="Forma 1" d="M24.22 12.5a11.714 11.714 0 10-3.43 8.286 11.683 11.683 0 003.43-8.286zm-2.88-8.838A12.5 12.5 0 1112.5 0a12.467 12.467 0 018.84 3.662zM12.11 17.97a.391.391 0 010 .781H8.98a.391.391 0 010-.781h3.13zm1.56-3.906a.391.391 0 010-.781 2.741 2.741 0 001.94-.8l.02-.021a2.736 2.736 0 00-.02-3.846l-.02-.022a2.745 2.745 0 00-1.92-.781H8.98a.391.391 0 010-.781h4.69a3.486 3.486 0 012.46 1.008l.03.023a3.509 3.509 0 01.02 4.947l-.02.025a3.522 3.522 0 01-2.49 1.029zm-4.69 0a.391.391 0 010-.781h4.69a.391.391 0 010 .781H8.98zm1.96 4.3a.394.394 0 01-.39.391.388.388 0 01-.39-.391V7.423a.387.387 0 01.39-.39.394.394 0 01.39.39V18.36zm-1.96-2.733a.391.391 0 010-.781h5.47a.391.391 0 010 .781H8.98z" fill="#445667" fill-rule="evenodd"/></svg>
