<svg viewBox="0 0 26 26"  viewBox="0 0 26 26" xmlns="http://www.w3.org/2000/svg"><g fill="#ff5816"><path d="M18.309 15.252c-.37 0-.606.158-.739.291l-1.483 1.484c-.012.012-.075.043-.222.043-.817 0-2.552-.909-4.289-2.646-2.334-2.333-2.848-4.266-2.603-4.51l1.484-1.484c.979-.979-.753-3.002-1.872-4.121-.508-.508-2.251-2.163-3.382-2.163-.37 0-.605.158-.738.29l-2.969 2.97c-.89.89-.573 2.62.945 5.139 1.311 2.176 3.383 4.725 5.836 7.178C11.9 21.345 16.7 25 19.257 25c.696 0 1.112-.27 1.338-.496l2.968-2.969c.979-.977-.752-3-1.872-4.12-.507-.508-2.25-2.163-3.382-2.163zm1.225 8.191c-.021.022-.103.057-.277.057-1.493 0-5.478-2.396-9.92-6.838-2.368-2.369-4.361-4.816-5.611-6.89-1.397-2.32-1.278-3.198-1.17-3.306l2.777-2.777c.37.152 1.2.688 2.191 1.68.994.993 1.529 1.822 1.68 2.192L7.912 8.853c-1.384 1.385.38 4.409 2.604 6.631 1.902 1.904 3.952 3.086 5.35 3.086.66 0 1.06-.261 1.281-.482l1.292-1.292c.37.151 1.199.686 2.192 1.68.992.993 1.528 1.82 1.68 2.191l-2.777 2.776zM22.467 3.533A8.595 8.595 0 0016.347 1h-.002a.75.75 0 000 1.5h.002c1.913 0 3.71.743 5.06 2.094A7.108 7.108 0 0123.5 9.655a.75.75 0 001.5 0 8.595 8.595 0 00-2.533-6.122z"/><path d="M15.355 5.466h.002c1.385 0 2.685.538 3.663 1.514a5.149 5.149 0 011.514 3.665.75.75 0 001.5 0A6.632 6.632 0 0020.08 5.92a6.637 6.637 0 00-4.723-1.954h-.002a.75.75 0 000 1.5zM14.366 8.432h.002c.856 0 1.66.333 2.264.936.604.605.936 1.41.936 2.266a.75.75 0 001.5 0 4.669 4.669 0 00-1.376-3.326 4.666 4.666 0 00-3.324-1.376h-.002a.75.75 0 000 1.5z"/></g></svg>
