<svg xmlns="http://www.w3.org/2000/svg" width="14.88" height="19.907" viewBox="0 0 14.88 19.907"><path d="M.06 10.638A7.919 7.919 0 01.3 7.625a7.362 7.362 0 016.91-5.467V.114a.143.143 0 01.23-.105l4.04 3.09a.142.142 0 010 .207l-4.04 3.09a.136.136 0 01-.22-.106V4.251a5.292 5.292 0 00-4.78 3.374 5.625 5.625 0 00.74 5.543 1.076 1.076 0 01-.19 1.5.981.981 0 01-1.39-.2 7.662 7.662 0 01-1.54-3.83zm11.65-3.926a5.54 5.54 0 011.15 3.135 5.643 5.643 0 01-.41 2.408 5.276 5.276 0 01-4.78 3.374v-2.041a.135.135 0 00-.22-.105l-4.04 3.089a.141.141 0 000 .207l4.03 3.09a.142.142 0 00.23-.105V17.72a7.343 7.343 0 006.91-5.467 7.915 7.915 0 00.25-3.012 7.655 7.655 0 00-1.54-3.828.981.981 0 00-1.39-.2 1.076 1.076 0 00-.19 1.497z" fill="#499c54" fill-rule="evenodd"/></svg>
