<svg xmlns="http://www.w3.org/2000/svg" width="25.26" height="21.875"  viewBox="0 0 25.26 21.875"><path data-name="Forma 1" d="M9.44 17.696a2.09 2.09 0 102.11 2.089 2.1 2.1 0 00-2.11-2.089zm9.21 0a2.09 2.09 0 102.1 2.089 2.1 2.1 0 00-2.1-2.089zm5.29-11.455H12.26a1.05 1.05 0 100 2.1H22.6l-.66 2.2H11.43a.972.972 0 100 1.944h9.93l-.62 2.057H8.9l-.79-6.207-.75-6.047a1.176 1.176 0 00-.88-.99l-5-1.263A1.186 1.186 0 00.04.883 1.173 1.173 0 00.9 2.311l4.21 1.065 1.64 12.2A1.43 1.43 0 008.11 17h13.1a1.393 1.393 0 001.31-1.134l2.59-7.635s.77-1.99-1.17-1.99z" fill="#ff5816" fill-rule="evenodd"/></svg>
