<svg data-name="Layer 1" viewBox="0 0 24 24" xmlns="http://www.w3.org/2000/svg"><path d="M20.53 7H19V2a1 1 0 00-.44-.83 1 1 0 00-.93-.1l-15 6a1.16 1.16 0 00-.36.25A2.49 2.49 0 001 9.47v11.06A2.48 2.48 0 003.47 23h17.06A2.48 2.48 0 0023 20.53V9.47A2.48 2.48 0 0020.53 7zM17 7H8.19L17 3.48zm4 10h-4a2 2 0 010-4h4zm-4-6a4 4 0 000 8h4v1.53a.47.47 0 01-.47.47H3.47a.47.47 0 01-.47-.47V9.47A.47.47 0 013.47 9h17.06a.47.47 0 01.47.47V11z" fill="#ff5816"/><circle fill="#ff5816" cx="18" cy="15" r="1"/></svg>
